<mxfile host="65bd71144e">
    <diagram name="Page-1" id="e-2AQXyxl9U2zlGf_Pc-">
        <mxGraphModel dx="1390" dy="553" grid="1" gridSize="10" guides="0" tooltips="1" connect="1" arrows="1" fold="1" page="1" pageScale="1" pageWidth="827" pageHeight="1169" math="0" shadow="0">
            <root>
                <mxCell id="0"/>
                <mxCell id="1" parent="0"/>
                <mxCell id="PPis1qjl9DVKednVu2a5-22" value="" style="rounded=1;whiteSpace=wrap;html=1;" parent="1" vertex="1">
                    <mxGeometry x="260" y="20" width="220" height="60" as="geometry"/>
                </mxCell>
                <mxCell id="KaEyTNgm47ZqdqgITIoc-33" value="" style="rounded=1;whiteSpace=wrap;html=1;direction=south;" parent="1" vertex="1">
                    <mxGeometry x="580" y="215" width="90" height="120" as="geometry"/>
                </mxCell>
                <mxCell id="KaEyTNgm47ZqdqgITIoc-21" value="" style="rounded=1;whiteSpace=wrap;html=1;direction=south;" parent="1" vertex="1">
                    <mxGeometry x="510" y="145" width="60" height="230" as="geometry"/>
                </mxCell>
                <mxCell id="KaEyTNgm47ZqdqgITIoc-16" value="" style="rounded=1;whiteSpace=wrap;html=1;direction=south;" parent="1" vertex="1">
                    <mxGeometry x="10" y="385" width="90" height="140" as="geometry"/>
                </mxCell>
                <mxCell id="KaEyTNgm47ZqdqgITIoc-10" value="" style="rounded=1;whiteSpace=wrap;html=1;direction=south;" parent="1" vertex="1">
                    <mxGeometry x="10" y="540" width="90" height="180" as="geometry"/>
                </mxCell>
                <mxCell id="KaEyTNgm47ZqdqgITIoc-6" value="" style="rounded=1;whiteSpace=wrap;html=1;" parent="1" vertex="1">
                    <mxGeometry x="580" y="690" width="180" height="80" as="geometry"/>
                </mxCell>
                <mxCell id="RwLCjtJhmah4xKhYauVf-77" value="" style="rounded=1;whiteSpace=wrap;html=1;" parent="1" vertex="1">
                    <mxGeometry x="690" y="470" width="110" height="140" as="geometry"/>
                </mxCell>
                <mxCell id="RwLCjtJhmah4xKhYauVf-72" value="" style="rounded=1;whiteSpace=wrap;html=1;" parent="1" vertex="1">
                    <mxGeometry x="410" y="680" width="150" height="80" as="geometry"/>
                </mxCell>
                <mxCell id="RwLCjtJhmah4xKhYauVf-73" value="" style="rounded=1;whiteSpace=wrap;html=1;" parent="1" vertex="1">
                    <mxGeometry x="176" y="680" width="164" height="80" as="geometry"/>
                </mxCell>
                <mxCell id="RwLCjtJhmah4xKhYauVf-63" value="" style="rounded=1;whiteSpace=wrap;html=1;direction=south;" parent="1" vertex="1">
                    <mxGeometry x="400" y="205" width="90" height="120" as="geometry"/>
                </mxCell>
                <mxCell id="RwLCjtJhmah4xKhYauVf-60" value="" style="rounded=1;whiteSpace=wrap;html=1;" parent="1" vertex="1">
                    <mxGeometry x="170" y="235" width="220" height="90" as="geometry"/>
                </mxCell>
                <mxCell id="RwLCjtJhmah4xKhYauVf-58" value="" style="rounded=1;whiteSpace=wrap;html=1;" parent="1" vertex="1">
                    <mxGeometry x="180" y="385" width="380" height="80" as="geometry"/>
                </mxCell>
                <mxCell id="RwLCjtJhmah4xKhYauVf-54" value="" style="rounded=1;whiteSpace=wrap;html=1;" parent="1" vertex="1">
                    <mxGeometry x="145" y="525" width="460" height="90" as="geometry"/>
                </mxCell>
                <mxCell id="RwLCjtJhmah4xKhYauVf-2" value="" style="points=[[0.03,0.03,0],[0.5,0,0],[0.97,0.03,0],[1,0.4,0],[0.97,0.745,0],[0.5,1,0],[0.03,0.745,0],[0,0.4,0]];verticalLabelPosition=bottom;sketch=0;html=1;verticalAlign=top;aspect=fixed;align=center;pointerEvents=1;shape=mxgraph.cisco19.workstation;fillColor=#005073;strokeColor=none;" parent="1" vertex="1">
                    <mxGeometry x="420" y="700" width="50" height="40" as="geometry"/>
                </mxCell>
                <mxCell id="RwLCjtJhmah4xKhYauVf-8" value="" style="sketch=0;points=[[0.015,0.015,0],[0.985,0.015,0],[0.985,0.985,0],[0.015,0.985,0],[0.25,0,0],[0.5,0,0],[0.75,0,0],[1,0.25,0],[1,0.5,0],[1,0.75,0],[0.75,1,0],[0.5,1,0],[0.25,1,0],[0,0.75,0],[0,0.5,0],[0,0.25,0]];verticalLabelPosition=bottom;html=1;verticalAlign=top;aspect=fixed;align=center;pointerEvents=1;shape=mxgraph.cisco19.rect;prIcon=l2_switch;fillColor=#FAFAFA;strokeColor=#005073;" parent="1" vertex="1">
                    <mxGeometry x="180" y="545" width="50" height="50" as="geometry"/>
                </mxCell>
                <mxCell id="RwLCjtJhmah4xKhYauVf-9" value="" style="sketch=0;points=[[0.015,0.015,0],[0.985,0.015,0],[0.985,0.985,0],[0.015,0.985,0],[0.25,0,0],[0.5,0,0],[0.75,0,0],[1,0.25,0],[1,0.5,0],[1,0.75,0],[0.75,1,0],[0.5,1,0],[0.25,1,0],[0,0.75,0],[0,0.5,0],[0,0.25,0]];verticalLabelPosition=bottom;html=1;verticalAlign=top;aspect=fixed;align=center;pointerEvents=1;shape=mxgraph.cisco19.rect;prIcon=l2_switch;fillColor=#FAFAFA;strokeColor=#005073;" parent="1" vertex="1">
                    <mxGeometry x="340" y="545" width="50" height="50" as="geometry"/>
                </mxCell>
                <mxCell id="RwLCjtJhmah4xKhYauVf-10" value="" style="sketch=0;points=[[0.015,0.015,0],[0.985,0.015,0],[0.985,0.985,0],[0.015,0.985,0],[0.25,0,0],[0.5,0,0],[0.75,0,0],[1,0.25,0],[1,0.5,0],[1,0.75,0],[0.75,1,0],[0.5,1,0],[0.25,1,0],[0,0.75,0],[0,0.5,0],[0,0.25,0]];verticalLabelPosition=bottom;html=1;verticalAlign=top;aspect=fixed;align=center;pointerEvents=1;shape=mxgraph.cisco19.server;fillColor=#005073;strokeColor=none;" parent="1" vertex="1">
                    <mxGeometry x="40" y="650" width="27.500000000000004" height="50" as="geometry"/>
                </mxCell>
                <mxCell id="RwLCjtJhmah4xKhYauVf-14" value="" style="sketch=0;points=[[0.015,0.015,0],[0.985,0.015,0],[0.985,0.985,0],[0.015,0.985,0],[0.25,0,0],[0.5,0,0],[0.75,0,0],[1,0.25,0],[1,0.5,0],[1,0.75,0],[0.75,1,0],[0.5,1,0],[0.25,1,0],[0,0.75,0],[0,0.5,0],[0,0.25,0]];verticalLabelPosition=bottom;html=1;verticalAlign=top;aspect=fixed;align=center;pointerEvents=1;shape=mxgraph.cisco19.rect;prIcon=l2_switch;fillColor=#FAFAFA;strokeColor=#005073;" parent="1" vertex="1">
                    <mxGeometry x="490" y="545" width="50" height="50" as="geometry"/>
                </mxCell>
                <mxCell id="RwLCjtJhmah4xKhYauVf-17" value="" style="sketch=0;points=[[0.5,0,0],[1,0.5,0],[0.5,1,0],[0,0.5,0],[0.145,0.145,0],[0.8555,0.145,0],[0.855,0.8555,0],[0.145,0.855,0]];verticalLabelPosition=bottom;html=1;verticalAlign=top;aspect=fixed;align=center;pointerEvents=1;shape=mxgraph.cisco19.rect;prIcon=router;fillColor=#FAFAFA;strokeColor=#005073;" parent="1" vertex="1">
                    <mxGeometry x="685" y="257.35" width="50" height="50" as="geometry"/>
                </mxCell>
                <mxCell id="KaEyTNgm47ZqdqgITIoc-39" style="edgeStyle=orthogonalEdgeStyle;rounded=0;orthogonalLoop=1;jettySize=auto;html=1;exitX=1;exitY=0.5;exitDx=0;exitDy=0;exitPerimeter=0;" parent="1" source="RwLCjtJhmah4xKhYauVf-18" edge="1">
                    <mxGeometry relative="1" as="geometry">
                        <mxPoint x="680.0000000000001" y="280.05063291139237" as="targetPoint"/>
                    </mxGeometry>
                </mxCell>
                <mxCell id="RwLCjtJhmah4xKhYauVf-18" value="" style="sketch=0;points=[[0.015,0.015,0],[0.985,0.015,0],[0.985,0.985,0],[0.015,0.985,0],[0.25,0,0],[0.5,0,0],[0.75,0,0],[1,0.25,0],[1,0.5,0],[1,0.75,0],[0.75,1,0],[0.5,1,0],[0.25,1,0],[0,0.75,0],[0,0.5,0],[0,0.25,0]];verticalLabelPosition=bottom;html=1;verticalAlign=top;aspect=fixed;align=center;pointerEvents=1;shape=mxgraph.cisco19.rect;prIcon=firewall;fillColor=#FAFAFA;strokeColor=#005073;" parent="1" vertex="1">
                    <mxGeometry x="590" y="252.64999999999998" width="70" height="54.69" as="geometry"/>
                </mxCell>
                <mxCell id="RwLCjtJhmah4xKhYauVf-19" value="" style="verticalLabelPosition=bottom;sketch=0;html=1;fillColor=#282828;strokeColor=none;verticalAlign=top;pointerEvents=1;align=center;shape=mxgraph.cisco_safe.security_icons.web;" parent="1" vertex="1">
                    <mxGeometry x="760" y="250" width="50" height="50" as="geometry"/>
                </mxCell>
                <mxCell id="RwLCjtJhmah4xKhYauVf-22" style="edgeStyle=orthogonalEdgeStyle;rounded=0;orthogonalLoop=1;jettySize=auto;html=1;exitX=1;exitY=0.5;exitDx=0;exitDy=0;exitPerimeter=0;entryX=0.75;entryY=1;entryDx=0;entryDy=0;entryPerimeter=0;strokeColor=#FF7F2A;" parent="1" target="RwLCjtJhmah4xKhYauVf-8" edge="1">
                    <mxGeometry relative="1" as="geometry">
                        <mxPoint x="67.5" y="669.9999999999998" as="sourcePoint"/>
                    </mxGeometry>
                </mxCell>
                <mxCell id="RwLCjtJhmah4xKhYauVf-23" style="edgeStyle=orthogonalEdgeStyle;rounded=0;orthogonalLoop=1;jettySize=auto;html=1;exitX=0.5;exitY=0;exitDx=0;exitDy=0;exitPerimeter=0;entryX=0.5;entryY=1;entryDx=0;entryDy=0;entryPerimeter=0;strokeColor=#6666FF;" parent="1" source="RwLCjtJhmah4xKhYauVf-2" target="RwLCjtJhmah4xKhYauVf-14" edge="1">
                    <mxGeometry relative="1" as="geometry"/>
                </mxCell>
                <mxCell id="RwLCjtJhmah4xKhYauVf-29" value="" style="points=[[0.03,0.03,0],[0.5,0,0],[0.97,0.03,0],[1,0.4,0],[0.97,0.745,0],[0.5,1,0],[0.03,0.745,0],[0,0.4,0]];verticalLabelPosition=bottom;sketch=0;html=1;verticalAlign=top;aspect=fixed;align=center;pointerEvents=1;shape=mxgraph.cisco19.workstation;fillColor=#005073;strokeColor=none;" parent="1" vertex="1">
                    <mxGeometry x="280" y="700" width="50" height="40" as="geometry"/>
                </mxCell>
                <mxCell id="RwLCjtJhmah4xKhYauVf-30" style="edgeStyle=orthogonalEdgeStyle;rounded=0;orthogonalLoop=1;jettySize=auto;html=1;exitX=0.5;exitY=0;exitDx=0;exitDy=0;exitPerimeter=0;entryX=0;entryY=0.5;entryDx=0;entryDy=0;entryPerimeter=0;strokeColor=#FF7F2A;" parent="1" source="RwLCjtJhmah4xKhYauVf-29" target="RwLCjtJhmah4xKhYauVf-9" edge="1">
                    <mxGeometry relative="1" as="geometry"/>
                </mxCell>
                <mxCell id="RwLCjtJhmah4xKhYauVf-41" style="edgeStyle=orthogonalEdgeStyle;rounded=0;orthogonalLoop=1;jettySize=auto;html=1;exitX=0.5;exitY=0;exitDx=0;exitDy=0;exitPerimeter=0;entryX=0.25;entryY=1;entryDx=0;entryDy=0;entryPerimeter=0;" parent="1" source="RwLCjtJhmah4xKhYauVf-8" edge="1">
                    <mxGeometry relative="1" as="geometry">
                        <mxPoint x="232.5" y="444.9999999999998" as="targetPoint"/>
                    </mxGeometry>
                </mxCell>
                <mxCell id="RwLCjtJhmah4xKhYauVf-42" style="edgeStyle=orthogonalEdgeStyle;rounded=0;orthogonalLoop=1;jettySize=auto;html=1;exitX=0.75;exitY=0;exitDx=0;exitDy=0;exitPerimeter=0;entryX=0.5;entryY=1;entryDx=0;entryDy=0;entryPerimeter=0;" parent="1" source="RwLCjtJhmah4xKhYauVf-8" edge="1">
                    <mxGeometry relative="1" as="geometry">
                        <Array as="points">
                            <mxPoint x="218" y="505"/>
                            <mxPoint x="438" y="505"/>
                            <mxPoint x="438" y="445"/>
                        </Array>
                        <mxPoint x="439" y="444.9999999999998" as="targetPoint"/>
                    </mxGeometry>
                </mxCell>
                <mxCell id="RwLCjtJhmah4xKhYauVf-43" style="edgeStyle=orthogonalEdgeStyle;rounded=0;orthogonalLoop=1;jettySize=auto;html=1;exitX=0.25;exitY=0;exitDx=0;exitDy=0;exitPerimeter=0;entryX=0.75;entryY=1;entryDx=0;entryDy=0;entryPerimeter=0;" parent="1" source="RwLCjtJhmah4xKhYauVf-9" edge="1">
                    <mxGeometry relative="1" as="geometry">
                        <mxPoint x="257.5" y="444.9999999999998" as="targetPoint"/>
                    </mxGeometry>
                </mxCell>
                <mxCell id="RwLCjtJhmah4xKhYauVf-44" style="edgeStyle=orthogonalEdgeStyle;rounded=0;orthogonalLoop=1;jettySize=auto;html=1;exitX=0.5;exitY=0;exitDx=0;exitDy=0;exitPerimeter=0;entryX=0.25;entryY=1;entryDx=0;entryDy=0;entryPerimeter=0;" parent="1" source="RwLCjtJhmah4xKhYauVf-9" edge="1">
                    <mxGeometry relative="1" as="geometry">
                        <mxPoint x="426.5" y="444.9999999999998" as="targetPoint"/>
                    </mxGeometry>
                </mxCell>
                <mxCell id="RwLCjtJhmah4xKhYauVf-45" style="edgeStyle=orthogonalEdgeStyle;rounded=0;orthogonalLoop=1;jettySize=auto;html=1;exitX=0.5;exitY=0;exitDx=0;exitDy=0;exitPerimeter=0;entryX=0.75;entryY=1;entryDx=0;entryDy=0;entryPerimeter=0;" parent="1" source="RwLCjtJhmah4xKhYauVf-14" edge="1">
                    <mxGeometry relative="1" as="geometry">
                        <mxPoint x="451.5" y="444.9999999999998" as="targetPoint"/>
                    </mxGeometry>
                </mxCell>
                <mxCell id="RwLCjtJhmah4xKhYauVf-46" style="edgeStyle=orthogonalEdgeStyle;rounded=0;orthogonalLoop=1;jettySize=auto;html=1;exitX=0.015;exitY=0.015;exitDx=0;exitDy=0;exitPerimeter=0;entryX=0.5;entryY=1;entryDx=0;entryDy=0;entryPerimeter=0;" parent="1" source="RwLCjtJhmah4xKhYauVf-14" edge="1">
                    <mxGeometry relative="1" as="geometry">
                        <Array as="points">
                            <mxPoint x="491" y="485"/>
                            <mxPoint x="245" y="485"/>
                        </Array>
                        <mxPoint x="245" y="444.9999999999998" as="targetPoint"/>
                    </mxGeometry>
                </mxCell>
                <mxCell id="RwLCjtJhmah4xKhYauVf-47" value="" style="sketch=0;points=[[0.015,0.015,0],[0.985,0.015,0],[0.985,0.985,0],[0.015,0.985,0],[0.25,0,0],[0.5,0,0],[0.75,0,0],[1,0.25,0],[1,0.5,0],[1,0.75,0],[0.75,1,0],[0.5,1,0],[0.25,1,0],[0,0.75,0],[0,0.5,0],[0,0.25,0]];verticalLabelPosition=bottom;html=1;verticalAlign=top;aspect=fixed;align=center;pointerEvents=1;shape=mxgraph.cisco19.rect;prIcon=workgroup_switch;fillColor=#FAFAFA;strokeColor=#005073;" parent="1" vertex="1">
                    <mxGeometry x="260" y="255" width="50" height="50" as="geometry"/>
                </mxCell>
                <mxCell id="RwLCjtJhmah4xKhYauVf-48" style="edgeStyle=orthogonalEdgeStyle;rounded=0;orthogonalLoop=1;jettySize=auto;html=1;exitX=0.5;exitY=0;exitDx=0;exitDy=0;exitPerimeter=0;entryX=0.137;entryY=1.066;entryDx=0;entryDy=0;entryPerimeter=0;" parent="1" target="RwLCjtJhmah4xKhYauVf-47" edge="1">
                    <mxGeometry relative="1" as="geometry">
                        <mxPoint x="245" y="394.9999999999998" as="sourcePoint"/>
                    </mxGeometry>
                </mxCell>
                <mxCell id="RwLCjtJhmah4xKhYauVf-49" style="edgeStyle=orthogonalEdgeStyle;rounded=0;orthogonalLoop=1;jettySize=auto;html=1;exitX=0.5;exitY=0;exitDx=0;exitDy=0;exitPerimeter=0;entryX=0.75;entryY=1;entryDx=0;entryDy=0;entryPerimeter=0;" parent="1" target="RwLCjtJhmah4xKhYauVf-47" edge="1">
                    <mxGeometry relative="1" as="geometry">
                        <mxPoint x="439" y="394.9999999999998" as="sourcePoint"/>
                        <Array as="points">
                            <mxPoint x="439" y="350"/>
                            <mxPoint x="297" y="350"/>
                        </Array>
                    </mxGeometry>
                </mxCell>
                <mxCell id="RwLCjtJhmah4xKhYauVf-53" style="edgeStyle=orthogonalEdgeStyle;rounded=0;orthogonalLoop=1;jettySize=auto;html=1;exitX=1;exitY=0.5;exitDx=0;exitDy=0;exitPerimeter=0;entryX=0.023;entryY=0.497;entryDx=0;entryDy=0;entryPerimeter=0;" parent="1" source="RwLCjtJhmah4xKhYauVf-17" target="RwLCjtJhmah4xKhYauVf-19" edge="1">
                    <mxGeometry relative="1" as="geometry"/>
                </mxCell>
                <mxCell id="RwLCjtJhmah4xKhYauVf-55" value="&lt;b&gt;Leaf&lt;/b&gt;" style="text;html=1;align=center;verticalAlign=middle;whiteSpace=wrap;rounded=0;" parent="1" vertex="1">
                    <mxGeometry x="550" y="585" width="60" height="30" as="geometry"/>
                </mxCell>
                <mxCell id="RwLCjtJhmah4xKhYauVf-59" value="&lt;b&gt;Spines&lt;/b&gt;" style="text;html=1;align=center;verticalAlign=middle;whiteSpace=wrap;rounded=0;" parent="1" vertex="1">
                    <mxGeometry x="470" y="425" width="60" height="30" as="geometry"/>
                </mxCell>
                <mxCell id="RwLCjtJhmah4xKhYauVf-61" value="&lt;b&gt;Border Leaf&lt;/b&gt;" style="text;html=1;align=center;verticalAlign=middle;whiteSpace=wrap;rounded=0;" parent="1" vertex="1">
                    <mxGeometry x="180" y="295" width="60" height="30" as="geometry"/>
                </mxCell>
                <mxCell id="RwLCjtJhmah4xKhYauVf-62" value="&lt;b&gt;Firewall 2&lt;/b&gt;" style="text;html=1;align=center;verticalAlign=middle;whiteSpace=wrap;rounded=0;" parent="1" vertex="1">
                    <mxGeometry x="595" y="220" width="60" height="30" as="geometry"/>
                </mxCell>
                <mxCell id="RwLCjtJhmah4xKhYauVf-75" value="&lt;b&gt;Laboratorios&lt;/b&gt;" style="text;html=1;align=center;verticalAlign=middle;whiteSpace=wrap;rounded=0;" parent="1" vertex="1">
                    <mxGeometry x="490" y="700" width="60" height="30" as="geometry"/>
                </mxCell>
                <mxCell id="RwLCjtJhmah4xKhYauVf-76" value="&lt;b&gt;Administración&lt;/b&gt;" style="text;html=1;align=center;verticalAlign=middle;whiteSpace=wrap;rounded=0;" parent="1" vertex="1">
                    <mxGeometry x="200" y="705" width="60" height="30" as="geometry"/>
                </mxCell>
                <mxCell id="RwLCjtJhmah4xKhYauVf-78" value="&lt;b&gt;Red inalaámbrica para Alumnos&lt;/b&gt;" style="text;html=1;align=center;verticalAlign=middle;whiteSpace=wrap;rounded=0;" parent="1" vertex="1">
                    <mxGeometry x="710" y="560" width="60" height="30" as="geometry"/>
                </mxCell>
                <mxCell id="RwLCjtJhmah4xKhYauVf-79" value="" style="sketch=0;points=[[0.5,0,0],[1,0.5,0],[0.5,1,0],[0,0.5,0],[0.145,0.145,0],[0.8555,0.145,0],[0.855,0.8555,0],[0.145,0.855,0]];verticalLabelPosition=bottom;html=1;verticalAlign=top;aspect=fixed;align=center;pointerEvents=1;shape=mxgraph.cisco19.rect;prIcon=router;fillColor=#FAFAFA;strokeColor=#005073;" parent="1" vertex="1">
                    <mxGeometry x="240" y="115" width="50" height="50" as="geometry"/>
                </mxCell>
                <mxCell id="RwLCjtJhmah4xKhYauVf-80" style="edgeStyle=orthogonalEdgeStyle;rounded=0;orthogonalLoop=1;jettySize=auto;html=1;exitX=0.25;exitY=0;exitDx=0;exitDy=0;exitPerimeter=0;entryX=1;entryY=0.5;entryDx=0;entryDy=0;entryPerimeter=0;" parent="1" source="RwLCjtJhmah4xKhYauVf-47" target="RwLCjtJhmah4xKhYauVf-79" edge="1">
                    <mxGeometry relative="1" as="geometry"/>
                </mxCell>
                <mxCell id="RwLCjtJhmah4xKhYauVf-83" value="" style="edgeStyle=orthogonalEdgeStyle;rounded=0;orthogonalLoop=1;jettySize=auto;html=1;exitX=0;exitY=0.5;exitDx=0;exitDy=0;exitPerimeter=0;" parent="1" source="RwLCjtJhmah4xKhYauVf-79" target="RwLCjtJhmah4xKhYauVf-82" edge="1">
                    <mxGeometry relative="1" as="geometry">
                        <mxPoint x="110" y="140" as="targetPoint"/>
                        <mxPoint x="240" y="140" as="sourcePoint"/>
                    </mxGeometry>
                </mxCell>
                <mxCell id="RwLCjtJhmah4xKhYauVf-82" value="" style="rounded=1;whiteSpace=wrap;html=1;" parent="1" vertex="1">
                    <mxGeometry x="76.25" y="110" width="113.75" height="60" as="geometry"/>
                </mxCell>
                <mxCell id="RwLCjtJhmah4xKhYauVf-84" value="&lt;b&gt;Resto de departamentos&lt;/b&gt;" style="text;html=1;align=center;verticalAlign=middle;whiteSpace=wrap;rounded=0;" parent="1" vertex="1">
                    <mxGeometry x="100" y="125" width="60" height="30" as="geometry"/>
                </mxCell>
                <mxCell id="KaEyTNgm47ZqdqgITIoc-27" style="edgeStyle=orthogonalEdgeStyle;rounded=0;orthogonalLoop=1;jettySize=auto;html=1;exitX=1;exitY=0.5;exitDx=0;exitDy=0;exitPerimeter=0;" parent="1" source="KaEyTNgm47ZqdqgITIoc-1" target="KaEyTNgm47ZqdqgITIoc-23" edge="1">
                    <mxGeometry relative="1" as="geometry">
                        <mxPoint x="500" y="282.57142857142856" as="targetPoint"/>
                    </mxGeometry>
                </mxCell>
                <mxCell id="KaEyTNgm47ZqdqgITIoc-1" value="" style="sketch=0;points=[[0.015,0.015,0],[0.985,0.015,0],[0.985,0.985,0],[0.015,0.985,0],[0.25,0,0],[0.5,0,0],[0.75,0,0],[1,0.25,0],[1,0.5,0],[1,0.75,0],[0.75,1,0],[0.5,1,0],[0.25,1,0],[0,0.75,0],[0,0.5,0],[0,0.25,0]];verticalLabelPosition=bottom;html=1;verticalAlign=top;aspect=fixed;align=center;pointerEvents=1;shape=mxgraph.cisco19.rect;prIcon=firewall;fillColor=#FAFAFA;strokeColor=#005073;" parent="1" vertex="1">
                    <mxGeometry x="414" y="255" width="70" height="54.69" as="geometry"/>
                </mxCell>
                <mxCell id="KaEyTNgm47ZqdqgITIoc-3" value="" style="points=[[0.13,0.02,0],[0.5,0,0],[0.87,0.02,0],[0.885,0.4,0],[0.985,0.985,0],[0.5,1,0],[0.015,0.985,0],[0.115,0.4,0]];verticalLabelPosition=bottom;sketch=0;html=1;verticalAlign=top;aspect=fixed;align=center;pointerEvents=1;shape=mxgraph.cisco19.laptop;fillColor=#005073;strokeColor=none;" parent="1" vertex="1">
                    <mxGeometry x="660" y="700" width="50" height="35" as="geometry"/>
                </mxCell>
                <mxCell id="KaEyTNgm47ZqdqgITIoc-7" value="&lt;b&gt;Alumnos&lt;/b&gt;" style="text;html=1;align=center;verticalAlign=middle;whiteSpace=wrap;rounded=0;" parent="1" vertex="1">
                    <mxGeometry x="590" y="700" width="60" height="30" as="geometry"/>
                </mxCell>
                <mxCell id="KaEyTNgm47ZqdqgITIoc-11" value="&lt;b&gt;Bases de datos&lt;/b&gt;" style="text;html=1;align=center;verticalAlign=middle;whiteSpace=wrap;rounded=0;" parent="1" vertex="1">
                    <mxGeometry x="25" y="555" width="60" height="30" as="geometry"/>
                </mxCell>
                <mxCell id="KaEyTNgm47ZqdqgITIoc-15" value="" style="sketch=0;points=[[0.015,0.015,0],[0.985,0.015,0],[0.985,0.985,0],[0.015,0.985,0],[0.25,0,0],[0.5,0,0],[0.75,0,0],[1,0.25,0],[1,0.5,0],[1,0.75,0],[0.75,1,0],[0.5,1,0],[0.25,1,0],[0,0.75,0],[0,0.5,0],[0,0.25,0]];verticalLabelPosition=bottom;html=1;verticalAlign=top;aspect=fixed;align=center;pointerEvents=1;shape=mxgraph.cisco19.server;fillColor=#005073;strokeColor=none;" parent="1" vertex="1">
                    <mxGeometry x="40" y="455" width="27.500000000000004" height="50" as="geometry"/>
                </mxCell>
                <mxCell id="KaEyTNgm47ZqdqgITIoc-17" value="&lt;b&gt;Servidor ftp&lt;/b&gt;" style="text;html=1;align=center;verticalAlign=middle;whiteSpace=wrap;rounded=0;" parent="1" vertex="1">
                    <mxGeometry x="23.75" y="395" width="60" height="30" as="geometry"/>
                </mxCell>
                <mxCell id="KaEyTNgm47ZqdqgITIoc-19" value="" style="sketch=0;points=[[0.015,0.015,0],[0.985,0.015,0],[0.985,0.985,0],[0.015,0.985,0],[0.25,0,0],[0.5,0,0],[0.75,0,0],[1,0.25,0],[1,0.5,0],[1,0.75,0],[0.75,1,0],[0.5,1,0],[0.25,1,0],[0,0.75,0],[0,0.5,0],[0,0.25,0]];verticalLabelPosition=bottom;html=1;verticalAlign=top;aspect=fixed;align=center;pointerEvents=1;shape=mxgraph.cisco19.server;fillColor=#005073;strokeColor=none;" parent="1" vertex="1">
                    <mxGeometry x="526.25" y="295" width="27.500000000000004" height="50" as="geometry"/>
                </mxCell>
                <mxCell id="KaEyTNgm47ZqdqgITIoc-20" value="" style="sketch=0;points=[[0.015,0.015,0],[0.985,0.015,0],[0.985,0.985,0],[0.015,0.985,0],[0.25,0,0],[0.5,0,0],[0.75,0,0],[1,0.25,0],[1,0.5,0],[1,0.75,0],[0.75,1,0],[0.5,1,0],[0.25,1,0],[0,0.75,0],[0,0.5,0],[0,0.25,0]];verticalLabelPosition=bottom;html=1;verticalAlign=top;aspect=fixed;align=center;pointerEvents=1;shape=mxgraph.cisco19.server;fillColor=#005073;strokeColor=none;" parent="1" vertex="1">
                    <mxGeometry x="526.25" y="195" width="27.500000000000004" height="50" as="geometry"/>
                </mxCell>
                <mxCell id="KaEyTNgm47ZqdqgITIoc-23" value="&lt;b&gt;DMZ&lt;/b&gt;" style="text;html=1;align=center;verticalAlign=middle;whiteSpace=wrap;rounded=0;" parent="1" vertex="1">
                    <mxGeometry x="510" y="260" width="60" height="30" as="geometry"/>
                </mxCell>
                <mxCell id="KaEyTNgm47ZqdqgITIoc-30" value="&lt;b&gt;Servidor web&lt;/b&gt;" style="text;html=1;align=center;verticalAlign=middle;whiteSpace=wrap;rounded=0;" parent="1" vertex="1">
                    <mxGeometry x="510" y="345" width="60" height="30" as="geometry"/>
                </mxCell>
                <mxCell id="KaEyTNgm47ZqdqgITIoc-31" value="&lt;b&gt;Servidor de correo&lt;/b&gt;" style="text;html=1;align=center;verticalAlign=middle;whiteSpace=wrap;rounded=0;" parent="1" vertex="1">
                    <mxGeometry x="510" y="150" width="60" height="30" as="geometry"/>
                </mxCell>
                <mxCell id="KaEyTNgm47ZqdqgITIoc-32" style="edgeStyle=orthogonalEdgeStyle;rounded=0;orthogonalLoop=1;jettySize=auto;html=1;exitX=1;exitY=0.5;exitDx=0;exitDy=0;entryX=-0.062;entryY=0.412;entryDx=0;entryDy=0;entryPerimeter=0;" parent="1" source="KaEyTNgm47ZqdqgITIoc-23" target="RwLCjtJhmah4xKhYauVf-18" edge="1">
                    <mxGeometry relative="1" as="geometry"/>
                </mxCell>
                <mxCell id="KaEyTNgm47ZqdqgITIoc-34" value="&lt;b&gt;Firewall 1&lt;/b&gt;" style="text;html=1;align=center;verticalAlign=middle;whiteSpace=wrap;rounded=0;" parent="1" vertex="1">
                    <mxGeometry x="420" y="215" width="60" height="30" as="geometry"/>
                </mxCell>
                <mxCell id="KaEyTNgm47ZqdqgITIoc-35" style="edgeStyle=orthogonalEdgeStyle;rounded=0;orthogonalLoop=1;jettySize=auto;html=1;exitX=1;exitY=0.5;exitDx=0;exitDy=0;exitPerimeter=0;entryX=-0.023;entryY=0.431;entryDx=0;entryDy=0;entryPerimeter=0;" parent="1" source="PPis1qjl9DVKednVu2a5-1" target="KaEyTNgm47ZqdqgITIoc-1" edge="1">
                    <mxGeometry relative="1" as="geometry"/>
                </mxCell>
                <mxCell id="KaEyTNgm47ZqdqgITIoc-36" style="edgeStyle=orthogonalEdgeStyle;rounded=0;orthogonalLoop=1;jettySize=auto;html=1;exitX=1;exitY=0.5;exitDx=0;exitDy=0;exitPerimeter=0;entryX=0.25;entryY=0;entryDx=0;entryDy=0;entryPerimeter=0;strokeColor=#6666FF;" parent="1" source="KaEyTNgm47ZqdqgITIoc-15" target="RwLCjtJhmah4xKhYauVf-8" edge="1">
                    <mxGeometry relative="1" as="geometry"/>
                </mxCell>
                <mxCell id="KaEyTNgm47ZqdqgITIoc-37" style="edgeStyle=orthogonalEdgeStyle;rounded=0;orthogonalLoop=1;jettySize=auto;html=1;exitX=1;exitY=0.5;exitDx=0;exitDy=0;exitPerimeter=0;entryX=0.384;entryY=0.999;entryDx=0;entryDy=0;entryPerimeter=0;" parent="1" source="KaEyTNgm47ZqdqgITIoc-20" target="KaEyTNgm47ZqdqgITIoc-33" edge="1">
                    <mxGeometry relative="1" as="geometry"/>
                </mxCell>
                <mxCell id="KaEyTNgm47ZqdqgITIoc-38" style="edgeStyle=orthogonalEdgeStyle;rounded=0;orthogonalLoop=1;jettySize=auto;html=1;exitX=1;exitY=0.5;exitDx=0;exitDy=0;exitPerimeter=0;entryX=0.61;entryY=0.988;entryDx=0;entryDy=0;entryPerimeter=0;" parent="1" source="KaEyTNgm47ZqdqgITIoc-19" target="KaEyTNgm47ZqdqgITIoc-33" edge="1">
                    <mxGeometry relative="1" as="geometry"/>
                </mxCell>
                <mxCell id="PPis1qjl9DVKednVu2a5-1" value="" style="sketch=0;points=[[0.015,0.015,0],[0.985,0.015,0],[0.985,0.985,0],[0.015,0.985,0],[0.25,0,0],[0.5,0,0],[0.75,0,0],[1,0.25,0],[1,0.5,0],[1,0.75,0],[0.75,1,0],[0.5,1,0],[0.25,1,0],[0,0.75,0],[0,0.5,0],[0,0.25,0]];verticalLabelPosition=bottom;html=1;verticalAlign=top;aspect=fixed;align=center;pointerEvents=1;shape=mxgraph.cisco19.rect;prIcon=workgroup_switch;fillColor=#FAFAFA;strokeColor=#005073;" parent="1" vertex="1">
                    <mxGeometry x="330" y="255" width="50" height="50" as="geometry"/>
                </mxCell>
                <mxCell id="PPis1qjl9DVKednVu2a5-3" style="edgeStyle=orthogonalEdgeStyle;rounded=0;orthogonalLoop=1;jettySize=auto;html=1;entryX=0.25;entryY=1;entryDx=0;entryDy=0;entryPerimeter=0;" parent="1" target="PPis1qjl9DVKednVu2a5-1" edge="1">
                    <mxGeometry relative="1" as="geometry">
                        <mxPoint x="270" y="406" as="sourcePoint"/>
                        <mxPoint x="342.5" y="315" as="targetPoint"/>
                    </mxGeometry>
                </mxCell>
                <mxCell id="PPis1qjl9DVKednVu2a5-4" style="edgeStyle=orthogonalEdgeStyle;rounded=0;orthogonalLoop=1;jettySize=auto;html=1;exitX=0.25;exitY=0;exitDx=0;exitDy=0;exitPerimeter=0;entryX=0.5;entryY=1;entryDx=0;entryDy=0;entryPerimeter=0;" parent="1" target="PPis1qjl9DVKednVu2a5-1" edge="1">
                    <mxGeometry relative="1" as="geometry">
                        <mxPoint x="426.5" y="394.9999999999998" as="sourcePoint"/>
                        <Array as="points">
                            <mxPoint x="427" y="345"/>
                            <mxPoint x="355" y="345"/>
                        </Array>
                    </mxGeometry>
                </mxCell>
                <mxCell id="PPis1qjl9DVKednVu2a5-6" style="edgeStyle=orthogonalEdgeStyle;rounded=0;orthogonalLoop=1;jettySize=auto;html=1;exitX=0.5;exitY=0;exitDx=0;exitDy=0;exitPerimeter=0;entryX=0.5;entryY=0;entryDx=0;entryDy=0;entryPerimeter=0;" parent="1" source="RwLCjtJhmah4xKhYauVf-47" target="KaEyTNgm47ZqdqgITIoc-1" edge="1">
                    <mxGeometry relative="1" as="geometry">
                        <Array as="points">
                            <mxPoint x="285" y="245"/>
                            <mxPoint x="449" y="245"/>
                        </Array>
                    </mxGeometry>
                </mxCell>
                <mxCell id="PPis1qjl9DVKednVu2a5-7" style="edgeStyle=orthogonalEdgeStyle;rounded=0;orthogonalLoop=1;jettySize=auto;html=1;exitX=0.5;exitY=0;exitDx=0;exitDy=0;exitPerimeter=0;entryX=1.004;entryY=0.748;entryDx=0;entryDy=0;entryPerimeter=0;" parent="1" source="PPis1qjl9DVKednVu2a5-1" target="RwLCjtJhmah4xKhYauVf-79" edge="1">
                    <mxGeometry relative="1" as="geometry"/>
                </mxCell>
                <mxCell id="PPis1qjl9DVKednVu2a5-8" value="L1" style="text;html=1;align=center;verticalAlign=middle;whiteSpace=wrap;rounded=0;" parent="1" vertex="1">
                    <mxGeometry x="210" y="565" width="60" height="30" as="geometry"/>
                </mxCell>
                <mxCell id="PPis1qjl9DVKednVu2a5-9" value="L3" style="text;html=1;align=center;verticalAlign=middle;whiteSpace=wrap;rounded=0;" parent="1" vertex="1">
                    <mxGeometry x="520" y="575" width="60" height="30" as="geometry"/>
                </mxCell>
                <mxCell id="PPis1qjl9DVKednVu2a5-10" value="L2" style="text;html=1;align=center;verticalAlign=middle;whiteSpace=wrap;rounded=0;" parent="1" vertex="1">
                    <mxGeometry x="370" y="575" width="60" height="30" as="geometry"/>
                </mxCell>
                <mxCell id="PPis1qjl9DVKednVu2a5-11" value="L4" style="text;html=1;align=center;verticalAlign=middle;whiteSpace=wrap;rounded=0;" parent="1" vertex="1">
                    <mxGeometry x="680" y="520" width="60" height="30" as="geometry"/>
                </mxCell>
                <mxCell id="PPis1qjl9DVKednVu2a5-12" value="L1" style="text;html=1;align=center;verticalAlign=middle;whiteSpace=wrap;rounded=0;" parent="1" vertex="1">
                    <mxGeometry x="220" y="245" width="60" height="30" as="geometry"/>
                </mxCell>
                <mxCell id="PPis1qjl9DVKednVu2a5-13" value="L2" style="text;html=1;align=center;verticalAlign=middle;whiteSpace=wrap;rounded=0;" parent="1" vertex="1">
                    <mxGeometry x="340" y="305" width="60" height="30" as="geometry"/>
                </mxCell>
                <mxCell id="PPis1qjl9DVKednVu2a5-14" value="S2" style="text;html=1;align=center;verticalAlign=middle;whiteSpace=wrap;rounded=0;" parent="1" vertex="1">
                    <mxGeometry x="450" y="395" width="60" height="30" as="geometry"/>
                </mxCell>
                <mxCell id="PPis1qjl9DVKednVu2a5-15" value="S1" style="text;html=1;align=center;verticalAlign=middle;whiteSpace=wrap;rounded=0;" parent="1" vertex="1">
                    <mxGeometry x="250" y="415" width="60" height="30" as="geometry"/>
                </mxCell>
                <mxCell id="PPis1qjl9DVKednVu2a5-16" value="R2" style="text;html=1;align=center;verticalAlign=middle;whiteSpace=wrap;rounded=0;" parent="1" vertex="1">
                    <mxGeometry x="680" y="225" width="60" height="30" as="geometry"/>
                </mxCell>
                <mxCell id="PPis1qjl9DVKednVu2a5-17" value="R1" style="text;html=1;align=center;verticalAlign=middle;whiteSpace=wrap;rounded=0;" parent="1" vertex="1">
                    <mxGeometry x="240" y="165" width="60" height="30" as="geometry"/>
                </mxCell>
                <mxCell id="PPis1qjl9DVKednVu2a5-19" value="2" style="text;html=1;align=center;verticalAlign=middle;whiteSpace=wrap;rounded=0;" parent="1" vertex="1">
                    <mxGeometry y="645" width="60" height="30" as="geometry"/>
                </mxCell>
                <mxCell id="PPis1qjl9DVKednVu2a5-21" value="&lt;h1 style=&quot;margin-top: 0px;&quot;&gt;CONEXIONES&lt;/h1&gt;" style="text;html=1;whiteSpace=wrap;overflow=hidden;rounded=0;" parent="1" vertex="1">
                    <mxGeometry x="290" y="30" width="180" height="40" as="geometry"/>
                </mxCell>
                <mxCell id="PPis1qjl9DVKednVu2a5-25" style="edgeStyle=orthogonalEdgeStyle;rounded=0;orthogonalLoop=1;jettySize=auto;html=1;exitX=0.5;exitY=0;exitDx=0;exitDy=0;exitPerimeter=0;entryX=0.378;entryY=1.023;entryDx=0;entryDy=0;entryPerimeter=0;strokeColor=#6666FF;" parent="1" source="KaEyTNgm47ZqdqgITIoc-3" target="RwLCjtJhmah4xKhYauVf-77" edge="1">
                    <mxGeometry relative="1" as="geometry">
                        <Array as="points">
                            <mxPoint x="667" y="700"/>
                            <mxPoint x="667" y="655"/>
                            <mxPoint x="732" y="655"/>
                        </Array>
                    </mxGeometry>
                </mxCell>
                <mxCell id="PPis1qjl9DVKednVu2a5-26" value="" style="sketch=0;points=[[0.5,0,0],[1,0.5,0],[0.5,1,0],[0,0.5,0],[0.145,0.145,0],[0.8555,0.145,0],[0.855,0.8555,0],[0.145,0.855,0]];verticalLabelPosition=bottom;html=1;verticalAlign=top;aspect=fixed;align=center;pointerEvents=1;shape=mxgraph.cisco19.rect;prIcon=router;fillColor=#FAFAFA;strokeColor=#005073;" parent="1" vertex="1">
                    <mxGeometry x="220" y="395" width="50" height="50" as="geometry"/>
                </mxCell>
                <mxCell id="PPis1qjl9DVKednVu2a5-27" value="" style="sketch=0;points=[[0.5,0,0],[1,0.5,0],[0.5,1,0],[0,0.5,0],[0.145,0.145,0],[0.8555,0.145,0],[0.855,0.8555,0],[0.145,0.855,0]];verticalLabelPosition=bottom;html=1;verticalAlign=top;aspect=fixed;align=center;pointerEvents=1;shape=mxgraph.cisco19.rect;prIcon=router;fillColor=#FAFAFA;strokeColor=#005073;" parent="1" vertex="1">
                    <mxGeometry x="410" y="395" width="50" height="50" as="geometry"/>
                </mxCell>
                <mxCell id="PPis1qjl9DVKednVu2a5-32" value="LEAF:&lt;div&gt;L1&lt;/div&gt;&lt;div&gt;-&lt;/div&gt;&lt;div&gt;-&lt;/div&gt;&lt;div&gt;-&lt;/div&gt;&lt;div&gt;-&lt;/div&gt;&lt;div&gt;L2&lt;/div&gt;&lt;div&gt;-&lt;/div&gt;&lt;div&gt;-&lt;/div&gt;&lt;div&gt;-&lt;/div&gt;&lt;div&gt;L3&lt;/div&gt;&lt;div&gt;-&lt;/div&gt;&lt;div&gt;-&lt;/div&gt;&lt;div&gt;-&lt;/div&gt;&lt;div&gt;-&lt;/div&gt;&lt;div&gt;&lt;br&gt;&lt;/div&gt;&lt;div&gt;L4&lt;/div&gt;&lt;div&gt;-&lt;/div&gt;" style="text;html=1;align=center;verticalAlign=middle;whiteSpace=wrap;rounded=0;" parent="1" vertex="1">
                    <mxGeometry y="780" width="80" height="300" as="geometry"/>
                </mxCell>
                <mxCell id="PPis1qjl9DVKednVu2a5-34" value="SPINES:&lt;div&gt;R1&lt;/div&gt;&lt;div&gt;-&lt;/div&gt;&lt;div&gt;-&lt;/div&gt;&lt;div&gt;-&lt;/div&gt;&lt;div&gt;-&lt;/div&gt;&lt;div&gt;-&lt;/div&gt;&lt;div&gt;R2&lt;/div&gt;&lt;div&gt;-&lt;/div&gt;&lt;div&gt;-&lt;/div&gt;&lt;div&gt;-&lt;/div&gt;&lt;div&gt;-&lt;/div&gt;&lt;div&gt;-&lt;/div&gt;&lt;div&gt;&lt;br&gt;&lt;/div&gt;" style="text;html=1;align=center;verticalAlign=middle;whiteSpace=wrap;rounded=0;" parent="1" vertex="1">
                    <mxGeometry x="120" y="750" width="80" height="300" as="geometry"/>
                </mxCell>
                <mxCell id="PPis1qjl9DVKednVu2a5-35" value="BORDER&lt;div&gt;LEAF:&lt;div&gt;L1&lt;/div&gt;&lt;div&gt;-&lt;/div&gt;&lt;div&gt;-&lt;/div&gt;&lt;div&gt;-&lt;/div&gt;&lt;div&gt;-&lt;/div&gt;&lt;div&gt;L2&lt;/div&gt;&lt;div&gt;-&lt;/div&gt;&lt;div&gt;-&lt;/div&gt;&lt;div&gt;-&lt;/div&gt;&lt;div&gt;-&lt;/div&gt;&lt;div&gt;&lt;br&gt;&lt;/div&gt;&lt;div&gt;&lt;br&gt;&lt;/div&gt;&lt;/div&gt;" style="text;html=1;align=center;verticalAlign=middle;whiteSpace=wrap;rounded=0;" parent="1" vertex="1">
                    <mxGeometry x="260" y="760" width="80" height="300" as="geometry"/>
                </mxCell>
                <mxCell id="PPis1qjl9DVKednVu2a5-36" value="FIREWALL&lt;div&gt;1&lt;/div&gt;" style="text;html=1;align=center;verticalAlign=middle;whiteSpace=wrap;rounded=0;" parent="1" vertex="1">
                    <mxGeometry x="440" y="800" width="80" height="110" as="geometry"/>
                </mxCell>
                <mxCell id="PPis1qjl9DVKednVu2a5-38" value="FIREWALL&lt;div&gt;2&lt;/div&gt;" style="text;html=1;align=center;verticalAlign=middle;whiteSpace=wrap;rounded=0;" parent="1" vertex="1">
                    <mxGeometry x="600" y="790" width="80" height="120" as="geometry"/>
                </mxCell>
                <mxCell id="PPis1qjl9DVKednVu2a5-39" value="Vlan:&lt;div&gt;- vlan 10 (admin)&lt;/div&gt;&lt;div&gt;-valn 20 (users)&lt;/div&gt;" style="text;html=1;align=center;verticalAlign=middle;whiteSpace=wrap;rounded=0;" parent="1" vertex="1">
                    <mxGeometry x="630" y="970" width="120" height="100" as="geometry"/>
                </mxCell>
                <mxCell id="PPis1qjl9DVKednVu2a5-41" style="edgeStyle=orthogonalEdgeStyle;rounded=0;orthogonalLoop=1;jettySize=auto;html=1;exitX=0;exitY=0.75;exitDx=0;exitDy=0;entryX=0.306;entryY=-0.195;entryDx=0;entryDy=0;entryPerimeter=0;strokeColor=#6666FF;" parent="1" source="RwLCjtJhmah4xKhYauVf-77" target="PPis1qjl9DVKednVu2a5-9" edge="1">
                    <mxGeometry relative="1" as="geometry"/>
                </mxCell>
                <mxCell id="2" value="" style="sketch=0;points=[[0.015,0.015,0],[0.985,0.015,0],[0.985,0.985,0],[0.015,0.985,0],[0.25,0,0],[0.5,0,0],[0.75,0,0],[1,0.25,0],[1,0.5,0],[1,0.75,0],[0.75,1,0],[0.5,1,0],[0.25,1,0],[0,0.75,0],[0,0.5,0],[0,0.25,0]];verticalLabelPosition=bottom;html=1;verticalAlign=top;aspect=fixed;align=center;pointerEvents=1;shape=mxgraph.cisco19.rect;prIcon=l2_switch;fillColor=#FAFAFA;strokeColor=#005073;" vertex="1" parent="1">
                    <mxGeometry x="720" y="490" width="50" height="50" as="geometry"/>
                </mxCell>
            </root>
        </mxGraphModel>
    </diagram>
</mxfile>